<svg xmlns="http://www.w3.org/2000/svg" xmlns:xlink="http://www.w3.org/1999/xlink" id="Layer_1" x="0px" y="0px" viewBox="0 0 160.38 132.73" style="enable-background:new 0 0 160.38 132.73;" xml:space="preserve">
<style type="text/css">
	.st0{fill:#2D2D2D;}
	.st1{opacity:0.6;fill:#000000;}
	.st2{opacity:0.2;fill:#000000;}
	.st3{fill:#2D2D2D;}
	.st4{opacity:0.6;fill:#262626;}
	.st5{opacity:0.2;fill:#262626;}
</style>
<g>
	<path class="st0" d="M33.04,63.3h0.48c1.27-5.07,3.93-13.68,5.7-18.87L54.17,0.09h23.81c-11.02,29.64-22.42,58.9-34.07,87.65H13.64   c-2.03-29.51-3.42-58.27-4.56-87.65h23.81c0.25,15.07,0.25,34.33,0.25,44.46c0,5.45-0.25,13.17-0.63,18.75"></path>
	<polygon class="st0" points="86.29,0 106.11,0 71.94,87.49 51.72,87.49  "></polygon>
	<polygon class="st1" points="113.42,0 133.25,0 99.07,87.49 78.85,87.49  "></polygon>
	<polygon class="st2" points="140.56,0 160.38,0 126.2,87.49 105.99,87.49  "></polygon>
</g>
<g>
	<path class="st0" d="M0,101.15h8.48c0.09,5.37,0.09,12.23,0.09,15.83c0,1.94-0.09,4.69-0.23,6.68h0.36c0.45-1.8,1.4-4.87,2.03-6.72   l5.32-15.79h8.48c-3.92,10.56-7.99,20.98-12.14,31.22H1.62C0.9,121.86,0.41,111.62,0,101.15z"></path>
	<path class="st0" d="M36.77,132.37c0.05-1.94,0.05-3.92,0.09-5.77h-6.9l-2.03,5.77h-8.03c3.79-10.38,7.8-20.93,11.96-31.22h11.91   c0.54,10.2,0.86,20.75,1.08,31.22H36.77z M36.9,120.24c0.05-0.63,0.05-1.22,0.05-1.76c0.05-3.56,0.05-7.35,0-10.47h-0.63   l-3.61,10.6c-0.18,0.5-0.36,1.04-0.59,1.62H36.9z"></path>
	<path class="st0" d="M52.69,130.34c-1.71-1.49-2.62-3.7-2.62-6.59c0-1.31,0.18-3.47,0.95-7.76l2.62-14.84h7.89l-2.75,15.65   c-0.5,2.8-0.81,4.6-0.81,5.86c0,1.04,0.23,1.8,0.77,2.35c0.5,0.5,1.31,0.81,2.3,0.81c1.22,0,2.35-0.45,3.02-1.44   c0.68-0.99,0.99-2.66,1.71-6.86l2.84-16.38h7.89l-3.07,17.41c-0.99,5.68-1.99,8.89-4.02,11.1c-1.8,1.94-4.6,3.07-8.93,3.07   C57.16,132.73,54.49,131.92,52.69,130.34z"></path>
	<path class="st0" d="M82.33,101.15h7.89l-4.33,24.59h9.29l-1.17,6.63H76.83L82.33,101.15z"></path>
	<path class="st0" d="M104.79,107.78h-6.54l1.13-6.63h21.02l-1.17,6.63h-6.54l-4.33,24.59h-7.89L104.79,107.78z"></path>
	<path class="st0" d="M132.63,132.37c0.04-1.94,0.04-3.92,0.09-5.77h-6.9l-2.03,5.77h-8.03c3.79-10.38,7.8-20.93,11.96-31.22h11.91   c0.54,10.2,0.86,20.75,1.08,31.22H132.63z M132.76,120.24c0.05-0.63,0.05-1.22,0.05-1.76c0.05-3.56,0.05-7.35,0-10.47h-0.63   l-3.61,10.6c-0.18,0.5-0.36,1.04-0.59,1.62H132.76z"></path>
</g>
</svg>
